<svg width="40" height="40" viewBox="0 0 40 40" fill="none" xmlns="http://www.w3.org/2000/svg">
<path d="M35.4167 20C35.4167 24.0888 33.7925 28.01 30.9013 30.9012C28.0101 33.7924 24.0888 35.4167 20 35.4167V37.9167C29.895 37.9167 37.9167 29.895 37.9167 20H35.4167ZM20 35.4167C15.9113 35.4167 11.99 33.7924 9.09881 30.9012C6.20763 28.01 4.58337 24.0888 4.58337 20H2.08337C2.08337 29.895 10.105 37.9167 20 37.9167V35.4167ZM4.58337 20C4.58337 15.9112 6.20763 11.99 9.09881 9.09877C11.99 6.20758 15.9113 4.58333 20 4.58333V2.08333C10.105 2.08333 2.08337 10.105 2.08337 20H4.58337ZM25.8334 23.75C23.2917 23.75 20.8542 22.7403 19.0569 20.9431C17.2597 19.1459 16.25 16.7083 16.25 14.1667H13.75C13.75 17.3714 15.0231 20.4448 17.2892 22.7109C19.5552 24.9769 22.6287 26.25 25.8334 26.25V23.75ZM34.0417 19.115C33.1889 20.5294 31.985 21.6994 30.5468 22.5115C29.1087 23.3236 27.485 23.7502 25.8334 23.75V26.25C27.9157 26.2506 29.9628 25.7131 31.7762 24.6896C33.5896 23.6661 35.1078 22.1913 36.1834 20.4083L34.0417 19.115ZM16.25 14.1667C16.2498 12.515 16.6764 10.8914 17.4885 9.45321C18.3006 8.01503 19.4706 6.81114 20.885 5.95833L19.5917 3.81833C17.809 4.89381 16.3343 6.41167 15.3109 8.22476C14.2874 10.0379 13.7497 12.0846 13.75 14.1667H16.25ZM20 4.58333C19.9163 4.58172 19.8337 4.56351 19.757 4.52975C19.6803 4.49599 19.6111 4.44736 19.5534 4.38667C19.4831 4.31609 19.4355 4.22613 19.4167 4.12833C19.41 4.07667 19.4134 3.92667 19.5917 3.81833L20.885 5.95833C21.7234 5.45167 21.9934 4.52333 21.895 3.79333C21.7917 3.035 21.195 2.08333 20 2.08333V4.58333ZM36.1834 20.4083C36.0734 20.5867 35.9234 20.59 35.8717 20.5833C35.7739 20.5645 35.684 20.5169 35.6134 20.4467C35.5527 20.3889 35.504 20.3197 35.4703 20.243C35.4365 20.1664 35.4183 20.0838 35.4167 20H37.9167C37.9167 18.805 36.965 18.2083 36.2067 18.105C35.4767 18.0067 34.5484 18.2767 34.0417 19.115L36.1834 20.4083Z" fill="white"/>
</svg>
